<svg width="147" height="21" viewBox="0 0 147 21" fill="none" xmlns="http://www.w3.org/2000/svg">
<path d="M3.87731 3.27938V8.87362H12.0514V3.27938C12.0514 2.48021 12.2291 1.86545 12.5845 1.4966C12.9399 1.12775 13.4138 0.881836 13.9469 0.881836C14.5393 0.881836 14.9539 1.06628 15.3093 1.4966C15.6647 1.86545 15.8423 2.48021 15.8423 3.27938V18.5867C15.8423 19.3858 15.6647 20.0006 15.3093 20.3695C14.9539 20.7383 14.48 20.9842 13.9469 20.9842C13.3546 20.9842 12.9399 20.7998 12.5845 20.3695C12.2291 19.9391 12.0514 19.3858 12.0514 18.5867V12.0703H3.87731V18.5867C3.87731 19.3858 3.69964 20.0006 3.34424 20.3695C2.98884 20.7383 2.51501 20.9842 1.98191 20.9842C1.38959 20.9842 0.974984 20.7998 0.619588 20.3695C0.264192 19.9391 0.0864258 19.3858 0.0864258 18.5867V3.27938C0.0864258 2.48021 0.264135 1.86545 0.560298 1.4966C0.915694 1.12775 1.38962 0.881836 1.92271 0.881836C2.51504 0.881836 2.92964 1.06628 3.28504 1.4966C3.69967 1.86545 3.87731 2.48021 3.87731 3.27938Z" fill="#F26422"/>
<path d="M18 12.685V3.34085C18 2.54167 18.1777 1.92692 18.5331 1.55807C18.8885 1.18922 19.3624 0.943301 19.8955 0.943301C20.4878 0.943301 20.9617 1.12774 21.2578 1.55807C21.6132 1.92692 21.7909 2.54167 21.7909 3.34085V12.8695C21.7909 13.976 21.9093 14.8367 22.1463 15.5744C22.3832 16.3121 22.7979 16.8654 23.3902 17.2957C23.9825 17.6645 24.8118 17.9104 25.878 17.9104C27.3588 17.9104 28.4249 17.4801 29.0173 16.6809C29.6096 15.8818 29.965 14.5908 29.965 12.931V3.27936C29.965 2.48018 30.1427 1.86543 30.4981 1.49658C30.8535 1.12773 31.2681 0.881836 31.8604 0.881836C32.4527 0.881836 32.8674 1.06625 33.2228 1.49658C33.5782 1.86543 33.7559 2.48018 33.7559 3.27936V12.6236C33.7559 14.1605 33.6374 15.39 33.3412 16.435C33.0451 17.4801 32.512 18.3408 31.742 19.1399C31.0905 19.8162 30.2611 20.2465 29.3727 20.5539C28.4842 20.8612 27.418 20.9842 26.2333 20.9842C24.8118 20.9842 23.5678 20.7998 22.5016 20.4924C21.4355 20.185 20.6062 19.6932 19.9547 19.017C19.3031 18.3408 18.8292 17.4801 18.5331 16.435C18.1777 15.39 18 14.1604 18 12.685Z" fill="#F26422"/>
<path d="M41.8406 12.1542H40.3465V18.5419C40.3465 19.356 40.1426 19.9822 39.7352 20.4206C39.3277 20.7963 38.7844 20.9842 38.1732 20.9842C37.494 20.9842 36.9507 20.7963 36.5432 20.358C36.1357 19.9196 36 19.356 36 18.5419V3.32418C36 2.44744 36.2037 1.8212 36.6112 1.44545C37.0187 1.06971 37.6978 0.881836 38.6486 0.881836H45.7116C46.6624 0.881836 47.5452 0.944463 48.2243 1.00709C48.9035 1.06971 49.5147 1.25758 50.1259 1.44545C50.805 1.69595 51.4163 2.0717 51.8917 2.57269C52.435 3.07369 52.7746 3.63731 53.0462 4.26355C53.3179 4.88979 53.4537 5.57864 53.4537 6.33013C53.4537 7.83312 52.9783 8.96036 52.0954 9.8371C51.2126 10.7138 49.8543 11.3401 48.0206 11.7158C48.7676 12.0916 49.5147 12.6552 50.2618 13.4067C50.9409 14.1582 51.62 14.9097 52.1633 15.7864C52.7066 16.6005 53.182 17.352 53.4537 18.0409C53.7933 18.7297 53.9291 19.1681 53.9291 19.4186C53.9291 19.6691 53.8612 19.9196 53.6574 20.1701C53.4537 20.4206 53.2499 20.6084 52.9104 20.7337C52.5708 20.8589 52.2312 20.9842 51.8237 20.9842C51.3483 20.9842 50.9409 20.859 50.6013 20.6711C50.2618 20.4832 49.9901 20.1701 49.7184 19.857C49.5147 19.5438 49.1751 19.0428 48.7676 18.4166L47.0019 15.7238C46.3907 14.7218 45.8474 13.9703 45.3041 13.4693C44.8287 12.9683 44.2854 12.5926 43.81 12.4047C43.2667 12.2794 42.5876 12.1542 41.8406 12.1542ZM44.3533 3.82518H40.3465V9.27348H44.2175C45.2362 9.27348 46.119 9.21085 46.8661 9.02298C47.5452 8.8351 48.0886 8.58461 48.496 8.14624C48.9035 7.7705 49.0394 7.20688 49.0394 6.45539C49.0394 5.89177 48.9035 5.4534 48.5639 5.01503C48.2923 4.57666 47.8169 4.26353 47.2735 4.07566C46.7982 3.95041 45.8474 3.82518 44.3533 3.82518Z" fill="#F26422"/>
<path d="M61.3096 12.1542H59.9513V18.5419C59.9513 19.356 59.7661 19.9822 59.3957 20.4206C59.0253 20.7963 58.5314 20.9842 57.9757 20.9842C57.3583 20.9842 56.8644 20.7963 56.4939 20.358C56.1235 19.9196 56 19.356 56 18.5419V3.32418C56 2.44744 56.1852 1.8212 56.5556 1.44545C56.9261 1.06971 57.5435 0.881836 58.4078 0.881836H64.8288C65.6931 0.881836 66.4957 0.944463 67.1131 1.00709C67.7305 1.06971 68.2862 1.25758 68.8418 1.44545C69.4592 1.69595 70.0148 2.0717 70.447 2.57269C70.9409 3.07369 71.2496 3.63731 71.4966 4.26355C71.7435 4.88979 71.8671 5.57864 71.8671 6.33013C71.8671 7.83312 71.4348 8.96036 70.6322 9.8371C69.8296 10.7138 68.5949 11.3401 66.9279 11.7158C67.607 12.0916 68.2862 12.6552 68.9653 13.4067C69.5827 14.1582 70.2001 14.9097 70.694 15.7864C71.1879 16.6005 71.6201 17.352 71.8671 18.0409C72.1758 18.7297 72.2992 19.1681 72.2992 19.4186C72.2992 19.6691 72.2375 19.9196 72.0523 20.1701C71.8671 20.4206 71.6819 20.6084 71.3732 20.7337C71.0645 20.8589 70.7557 20.9842 70.3853 20.9842C69.9531 20.9842 69.5826 20.859 69.2739 20.6711C68.9652 20.4832 68.7184 20.1701 68.4714 19.857C68.2862 19.5438 67.9775 19.0428 67.607 18.4166L66.0018 15.7238C65.4461 14.7218 64.9522 13.9703 64.4583 13.4693C64.0261 12.9683 63.5322 12.5926 63.1 12.4047C62.5443 12.2794 61.9887 12.1542 61.3096 12.1542ZM63.5322 3.82518H59.8896V9.27348H63.4087C64.3348 9.27348 65.1374 9.21085 65.8166 9.02298C66.4339 8.8351 66.9279 8.58461 67.2983 8.14624C67.6688 7.7705 67.7923 7.20688 67.7923 6.45539C67.7923 5.89177 67.6687 5.4534 67.36 5.01503C67.1131 4.57666 66.6809 4.26353 66.187 4.07566C65.8165 3.95041 64.8905 3.82518 63.5322 3.82518Z" fill="#F26422"/>
<path d="M88.6924 18.456L87.7715 15.9895H79.9121L78.991 18.5177C78.6226 19.5043 78.3157 20.1826 78.0701 20.4909C77.8245 20.7992 77.3947 20.9842 76.8421 20.9842C76.3508 20.9842 75.921 20.7992 75.5526 20.4292C75.1842 20.0592 75 19.6276 75 19.1959C75 18.9493 75.0614 18.641 75.1228 18.3943C75.1842 18.086 75.3684 17.716 75.5526 17.2227L80.5261 4.58165C80.6489 4.21167 80.8331 3.78003 81.0173 3.28672C81.2015 2.79341 81.4471 2.36177 81.6313 1.99178C81.8769 1.68347 82.1839 1.37514 82.491 1.19015C82.8594 1.00516 83.2892 0.881836 83.8418 0.881836C84.3944 0.881836 84.8242 1.00516 85.1926 1.19015C85.561 1.37514 85.868 1.68347 86.0522 1.99178C86.2978 2.3001 86.482 2.67007 86.6048 3.04006C86.789 3.41004 86.9733 3.90336 87.2189 4.52L92.3152 17.0994C92.6836 18.086 92.9291 18.7643 92.9291 19.1959C92.9291 19.6276 92.745 20.0592 92.3765 20.4292C92.0081 20.7992 91.5783 20.9842 91.0257 20.9842C90.7187 20.9842 90.4731 20.9225 90.2275 20.7992C89.9819 20.6759 89.7977 20.5526 89.6749 20.3676C89.5521 20.1826 89.3679 19.8743 89.1837 19.5043C88.9381 19.0726 88.8152 18.7026 88.6924 18.456ZM80.8946 13.0296H86.6662L83.719 5.01329L80.8946 13.0296Z" fill="#F26422"/>
<path d="M108.692 18.456L107.771 15.9895H99.9121L98.9911 18.5177C98.6227 19.5043 98.3157 20.1826 98.0701 20.4909C97.8245 20.7992 97.3947 20.9842 96.8421 20.9842C96.3508 20.9842 95.921 20.7992 95.5526 20.4292C95.1842 20.0592 95 19.6276 95 19.1959C95 18.9493 95.0614 18.641 95.1228 18.3943C95.1842 18.086 95.3684 17.716 95.5526 17.2227L100.526 4.58165C100.649 4.21167 100.833 3.78003 101.017 3.28672C101.201 2.79341 101.447 2.36177 101.631 1.99178C101.877 1.68347 102.184 1.37514 102.491 1.19015C102.859 1.00516 103.289 0.881836 103.842 0.881836C104.394 0.881836 104.824 1.00516 105.193 1.19015C105.561 1.37514 105.868 1.68347 106.052 1.99178C106.298 2.3001 106.482 2.67007 106.605 3.04006C106.789 3.41004 106.973 3.90336 107.219 4.52L112.315 17.0994C112.684 18.086 112.929 18.7643 112.929 19.1959C112.929 19.6276 112.745 20.0592 112.377 20.4292C112.008 20.7992 111.578 20.9842 111.026 20.9842C110.719 20.9842 110.473 20.9225 110.227 20.7992C109.982 20.6759 109.798 20.5526 109.675 20.3676C109.552 20.1826 109.368 19.8743 109.184 19.5043C108.999 19.0726 108.815 18.7026 108.692 18.456ZM100.956 13.0296H106.728L103.78 5.01329L100.956 13.0296Z" fill="#F26422"/>
<path d="M117.049 18.5867V12.4392L112.146 5.06214C111.7 4.38592 111.382 3.89412 111.255 3.52527C111.064 3.15642 111 2.84904 111 2.54167C111 2.11134 111.191 1.68102 111.509 1.37365C111.891 1.06627 112.337 0.881836 112.846 0.881836C113.419 0.881836 113.801 1.06627 114.12 1.37365C114.438 1.68102 114.82 2.29577 115.393 3.2179L119.15 9.1195L122.97 3.2179C123.224 2.84905 123.415 2.54166 123.543 2.29576C123.67 2.04986 123.861 1.80398 124.052 1.61955C124.243 1.37365 124.434 1.25069 124.689 1.12774C124.943 1.00479 125.198 0.943324 125.516 0.943324C126.026 0.943324 126.472 1.12774 126.79 1.43511C127.108 1.74249 127.299 2.11134 127.299 2.54167C127.299 2.91052 127.236 3.21791 127.045 3.58676C126.854 3.95561 126.599 4.38593 126.153 5.00068L121.123 12.4392V18.5867C121.123 19.3858 120.932 20.0006 120.55 20.3695C120.168 20.7383 119.659 20.9842 119.086 20.9842C118.513 20.9842 118.004 20.7998 117.622 20.4309C117.24 20.0006 117.049 19.3858 117.049 18.5867Z" fill="#F26422"/>
<path d="M136.049 18.5867V12.4392L131.146 5.06214C130.7 4.38592 130.382 3.89412 130.255 3.52527C130.064 3.15642 130 2.84904 130 2.54167C130 2.11134 130.191 1.68102 130.509 1.37365C130.891 1.06627 131.337 0.881836 131.846 0.881836C132.419 0.881836 132.801 1.06627 133.12 1.37365C133.438 1.68102 133.82 2.29577 134.393 3.2179L138.15 9.1195L141.97 3.2179C142.224 2.84905 142.415 2.54166 142.543 2.29576C142.67 2.04986 142.861 1.80398 143.052 1.61955C143.243 1.37365 143.434 1.25069 143.689 1.12774C143.943 1.00479 144.198 0.943324 144.517 0.943324C145.026 0.943324 145.472 1.12774 145.79 1.43511C146.108 1.74249 146.299 2.11134 146.299 2.54167C146.299 2.91052 146.235 3.21791 146.044 3.58676C145.853 3.95561 145.599 4.38593 145.153 5.00068L140.123 12.4392V18.5867C140.123 19.3858 139.932 20.0006 139.55 20.3695C139.168 20.7383 138.659 20.9842 138.086 20.9842C137.513 20.9842 137.004 20.7998 136.622 20.4309C136.24 20.0006 136.049 19.3858 136.049 18.5867Z" fill="#F26422"/>
</svg>
