<svg width="196" height="46" viewBox="0 0 196 46" fill="none" xmlns="http://www.w3.org/2000/svg">
<path d="M63.088 33C62.7893 33 62.5187 32.8787 62.276 32.636C62.0333 32.3933 61.912 32.1227 61.912 31.824V15.192C61.912 14.8747 62.0333 14.604 62.276 14.38C62.5187 14.1373 62.7893 14.016 63.088 14.016C63.4053 14.016 63.676 14.1373 63.9 14.38C64.1427 14.604 64.264 14.8747 64.264 15.192V22.22H75.688V15.192C75.688 14.8747 75.8 14.604 76.024 14.38C76.2667 14.1373 76.5467 14.016 76.864 14.016C77.1813 14.016 77.452 14.1373 77.676 14.38C77.9187 14.604 78.04 14.8747 78.04 15.192V31.824C78.04 32.1227 77.9187 32.3933 77.676 32.636C77.452 32.8787 77.1813 33 76.864 33C76.5467 33 76.2667 32.888 76.024 32.664C75.8 32.4213 75.688 32.1413 75.688 31.824V24.572H64.264V31.824C64.264 32.1227 64.1427 32.3933 63.9 32.636C63.676 32.8787 63.4053 33 63.088 33ZM95.405 18.804C95.7784 18.804 96.0677 18.9067 96.273 19.112C96.4784 19.3173 96.581 19.6067 96.581 19.98V31.824C96.581 32.608 96.189 33 95.405 33C94.621 33 94.229 32.608 94.229 31.824V31.348C93.2397 32.4493 91.7837 33 89.861 33H89.077C87.2104 33 85.829 32.552 84.933 31.656C84.037 30.76 83.589 29.3787 83.589 27.512V19.98C83.589 19.6067 83.6917 19.3173 83.897 19.112C84.1024 18.9067 84.3917 18.804 84.765 18.804C85.1384 18.804 85.4277 18.9067 85.633 19.112C85.8384 19.3173 85.941 19.6067 85.941 19.98V27.512C85.941 28.3333 86.0344 28.968 86.221 29.416C86.4077 29.864 86.725 30.1813 87.173 30.368C87.621 30.5547 88.2557 30.648 89.077 30.648H89.861C91.037 30.648 92.0264 30.5173 92.829 30.256C93.6504 29.976 94.117 29.5747 94.229 29.052V19.98C94.229 19.6067 94.3317 19.3173 94.537 19.112C94.7424 18.9067 95.0317 18.804 95.405 18.804ZM109.8 18.804C110.173 18.804 110.463 18.9067 110.668 19.112C110.873 19.3173 110.976 19.6067 110.976 19.98C110.976 20.3533 110.873 20.6427 110.668 20.848C110.463 21.0533 110.173 21.156 109.8 21.156C108.213 21.156 106.981 21.4547 106.104 22.052C105.245 22.6307 104.797 23.424 104.76 24.432V31.824C104.76 32.1973 104.657 32.4867 104.452 32.692C104.247 32.8973 103.957 33 103.584 33C103.211 33 102.921 32.8973 102.716 32.692C102.511 32.4867 102.408 32.1973 102.408 31.824V19.98C102.408 19.196 102.8 18.804 103.584 18.804C104.368 18.804 104.76 19.196 104.76 19.98V21.072C105.899 19.56 107.579 18.804 109.8 18.804ZM121.749 18.804C122.123 18.804 122.412 18.9067 122.617 19.112C122.823 19.3173 122.925 19.6067 122.925 19.98C122.925 20.3533 122.823 20.6427 122.617 20.848C122.412 21.0533 122.123 21.156 121.749 21.156C120.163 21.156 118.931 21.4547 118.053 22.052C117.195 22.6307 116.747 23.424 116.709 24.432V31.824C116.709 32.1973 116.607 32.4867 116.401 32.692C116.196 32.8973 115.907 33 115.533 33C115.16 33 114.871 32.8973 114.665 32.692C114.46 32.4867 114.357 32.1973 114.357 31.824V19.98C114.357 19.196 114.749 18.804 115.533 18.804C116.317 18.804 116.709 19.196 116.709 19.98V21.072C117.848 19.56 119.528 18.804 121.749 18.804ZM132.347 18.804C134.214 18.804 135.595 19.252 136.491 20.148C137.387 21.044 137.835 22.4253 137.835 24.292V31.824C137.835 32.1973 137.732 32.4867 137.527 32.692C137.322 32.8973 137.032 33 136.659 33C136.286 33 135.996 32.8973 135.791 32.692C135.586 32.4867 135.483 32.1973 135.483 31.824V31.18C134.494 32.3933 133.038 33 131.115 33H129.547C127.979 33 126.812 32.6173 126.047 31.852C125.282 31.0867 124.899 29.92 124.899 28.352C124.899 26.784 125.272 25.6173 126.019 24.852C126.784 24.0867 127.96 23.704 129.547 23.704H135.455C135.399 22.7333 135.147 22.0707 134.699 21.716C134.251 21.3427 133.467 21.156 132.347 21.156H130.723C129.79 21.156 129.09 21.2213 128.623 21.352C128.175 21.4827 127.858 21.7067 127.671 22.024C127.503 22.416 127.326 22.6867 127.139 22.836C126.952 22.9853 126.691 23.06 126.355 23.06C126.019 23.06 125.739 22.976 125.515 22.808C125.31 22.64 125.207 22.416 125.207 22.136C125.207 22.024 125.216 21.9307 125.235 21.856C125.515 20.8107 126.094 20.0453 126.971 19.56C127.867 19.056 129.118 18.804 130.723 18.804H132.347ZM135.343 28.716C135.362 28.66 135.38 28.604 135.399 28.548C135.418 28.4733 135.446 28.3987 135.483 28.324V26.056H129.547C128.912 26.056 128.436 26.1213 128.119 26.252C127.802 26.3827 127.578 26.6067 127.447 26.924C127.316 27.2413 127.251 27.7173 127.251 28.352C127.251 28.9867 127.316 29.4627 127.447 29.78C127.578 30.0973 127.802 30.3213 128.119 30.452C128.436 30.5827 128.912 30.648 129.547 30.648H131.115C133.486 30.648 134.895 30.004 135.343 28.716ZM149.71 18.804C151.577 18.804 152.958 19.252 153.854 20.148C154.75 21.044 155.198 22.4253 155.198 24.292V31.824C155.198 32.1973 155.095 32.4867 154.89 32.692C154.685 32.8973 154.395 33 154.022 33C153.649 33 153.359 32.8973 153.154 32.692C152.949 32.4867 152.846 32.1973 152.846 31.824V31.18C151.857 32.3933 150.401 33 148.478 33H146.91C145.342 33 144.175 32.6173 143.41 31.852C142.645 31.0867 142.262 29.92 142.262 28.352C142.262 26.784 142.635 25.6173 143.382 24.852C144.147 24.0867 145.323 23.704 146.91 23.704H152.818C152.762 22.7333 152.51 22.0707 152.062 21.716C151.614 21.3427 150.83 21.156 149.71 21.156H148.086C147.153 21.156 146.453 21.2213 145.986 21.352C145.538 21.4827 145.221 21.7067 145.034 22.024C144.866 22.416 144.689 22.6867 144.502 22.836C144.315 22.9853 144.054 23.06 143.718 23.06C143.382 23.06 143.102 22.976 142.878 22.808C142.673 22.64 142.57 22.416 142.57 22.136C142.57 22.024 142.579 21.9307 142.598 21.856C142.878 20.8107 143.457 20.0453 144.334 19.56C145.23 19.056 146.481 18.804 148.086 18.804H149.71ZM152.706 28.716C152.725 28.66 152.743 28.604 152.762 28.548C152.781 28.4733 152.809 28.3987 152.846 28.324V26.056H146.91C146.275 26.056 145.799 26.1213 145.482 26.252C145.165 26.3827 144.941 26.6067 144.81 26.924C144.679 27.2413 144.614 27.7173 144.614 28.352C144.614 28.9867 144.679 29.4627 144.81 29.78C144.941 30.0973 145.165 30.3213 145.482 30.452C145.799 30.5827 146.275 30.648 146.91 30.648H148.478C150.849 30.648 152.258 30.004 152.706 28.716ZM164.484 38.6C161.796 38.6 160.452 37.2467 160.452 34.54C160.452 33.756 160.844 33.364 161.628 33.364C162.412 33.364 162.804 33.756 162.804 34.54C162.804 35.2493 162.907 35.7067 163.112 35.912C163.336 36.136 163.794 36.248 164.484 36.248H169.916C170.607 36.248 171.055 36.136 171.26 35.912C171.484 35.688 171.596 35.2307 171.596 34.54V30.984C171.074 31.768 170.458 32.3 169.748 32.58C169.058 32.86 168.218 33 167.228 33H165.856C164.008 33 162.646 32.5613 161.768 31.684C160.891 30.8067 160.452 29.4533 160.452 27.624V19.98C160.452 19.196 160.844 18.804 161.628 18.804C162.412 18.804 162.804 19.196 162.804 19.98V27.624C162.804 28.4267 162.888 29.0427 163.056 29.472C163.243 29.9013 163.551 30.2093 163.98 30.396C164.428 30.564 165.054 30.648 165.856 30.648H167.228C168.74 30.648 169.842 30.4053 170.532 29.92C171.242 29.416 171.596 28.6507 171.596 27.624V19.98C171.596 19.196 171.988 18.804 172.772 18.804C173.556 18.804 173.948 19.196 173.948 19.98V34.54C173.948 37.2467 172.604 38.6 169.916 38.6H164.484ZM183.516 38.6C180.828 38.6 179.484 37.2467 179.484 34.54C179.484 33.756 179.876 33.364 180.66 33.364C181.444 33.364 181.836 33.756 181.836 34.54C181.836 35.2493 181.938 35.7067 182.144 35.912C182.368 36.136 182.825 36.248 183.516 36.248H188.948C189.638 36.248 190.086 36.136 190.292 35.912C190.516 35.688 190.628 35.2307 190.628 34.54V30.984C190.105 31.768 189.489 32.3 188.78 32.58C188.089 32.86 187.249 33 186.26 33H184.888C183.04 33 181.677 32.5613 180.8 31.684C179.922 30.8067 179.484 29.4533 179.484 27.624V19.98C179.484 19.196 179.876 18.804 180.66 18.804C181.444 18.804 181.836 19.196 181.836 19.98V27.624C181.836 28.4267 181.92 29.0427 182.088 29.472C182.274 29.9013 182.582 30.2093 183.012 30.396C183.46 30.564 184.085 30.648 184.888 30.648H186.26C187.772 30.648 188.873 30.4053 189.564 29.92C190.273 29.416 190.628 28.6507 190.628 27.624V19.98C190.628 19.196 191.02 18.804 191.804 18.804C192.588 18.804 192.98 19.196 192.98 19.98V34.54C192.98 37.2467 191.636 38.6 188.948 38.6H183.516Z" fill="#094553"/>
<path d="M22.1898 28.7616C22.1898 29.345 21.7058 29.8331 21.09 29.8331C20.4742 29.8331 19.9902 29.345 19.9902 28.7616C19.9902 28.1783 20.4742 27.6902 21.09 27.6902C21.7058 27.6902 22.1898 28.1783 22.1898 28.7616Z" fill="#FF6304" stroke="#FF6304"/>
<path d="M30.0101 28.7616C30.0101 29.345 29.5261 29.8331 28.9103 29.8331C28.2945 29.8331 27.8105 29.345 27.8105 28.7616C27.8105 28.1783 28.2945 27.6902 28.9103 27.6902C29.5261 27.6902 30.0101 28.1783 30.0101 28.7616Z" fill="#FF6304" stroke="#FF6304"/>
<path fill-rule="evenodd" clip-rule="evenodd" d="M13.1192 26.1423C13.7083 26.1423 14.1858 26.6114 14.1858 27.19V32.2815C14.1858 38.1494 19.0266 42.9046 25.0001 42.9046C30.9737 42.9046 35.8145 38.1494 35.8145 32.2815V27.19C35.8145 26.6114 36.292 26.1423 36.881 26.1423C37.4701 26.1423 37.9476 26.6114 37.9476 27.19V32.2815C37.9476 39.3066 32.1517 44.9999 25.0001 44.9999C17.8485 44.9999 12.0527 39.3066 12.0527 32.2815V27.19C12.0527 26.6114 12.5302 26.1423 13.1192 26.1423Z" fill="#FF6304" stroke="#FF6304" stroke-miterlimit="10" stroke-linecap="round"/>
<path fill-rule="evenodd" clip-rule="evenodd" d="M14.7736 6.40419C19.6843 -0.83527 30.5282 -0.792716 35.3839 6.4805L48.8255 26.6162C49.1485 27.1001 49.011 27.7495 48.5184 28.0668C48.0259 28.3841 47.3647 28.249 47.0417 27.7652L33.6002 7.62955C33.6002 7.62953 33.6002 7.62956 33.6002 7.62955C29.5826 1.61173 20.6108 1.57741 16.5486 7.56609L2.95411 27.6041C2.62746 28.0856 1.96532 28.2157 1.47517 27.8949C0.985028 27.574 0.852489 26.9236 1.17914 26.4421L14.7736 6.40419C14.7736 6.40422 14.7736 6.40417 14.7736 6.40419Z" fill="#FF6304"/>
<path d="M14.7736 6.40419C19.6843 -0.83527 30.5282 -0.792716 35.3839 6.4805L48.8255 26.6162C49.1485 27.1001 49.011 27.7495 48.5184 28.0668C48.0259 28.3841 47.3647 28.249 47.0417 27.7652L33.6002 7.62955M14.7736 6.40419L1.17914 26.4421C0.852489 26.9236 0.985028 27.574 1.47517 27.8949C1.96532 28.2157 2.62746 28.0856 2.95411 27.6041L16.5486 7.56609C20.6108 1.57741 29.5826 1.61173 33.6002 7.62955M14.7736 6.40419C14.7736 6.40422 14.7736 6.40417 14.7736 6.40419ZM33.6002 7.62955C33.6002 7.62956 33.6002 7.62953 33.6002 7.62955Z" stroke="#FF6304" stroke-miterlimit="10" stroke-linecap="round"/>
<path fill-rule="evenodd" clip-rule="evenodd" d="M6.74512 18.8158C6.74512 18.2372 7.22261 17.7682 7.81163 17.7682H42.1888C42.7778 17.7682 43.2553 18.2372 43.2553 18.8158C43.2553 19.3944 42.7778 19.8635 42.1888 19.8635H7.81163C7.22261 19.8635 6.74512 19.3944 6.74512 18.8158Z" fill="#FF6304" stroke="#FF6304" stroke-miterlimit="10" stroke-linecap="round"/>
<path fill-rule="evenodd" clip-rule="evenodd" d="M32.8757 9.8826C32.8757 9.88262 32.8757 9.88263 32.8757 9.88265L42.8689 18.0088C43.3226 18.3778 43.3859 19.0382 43.0103 19.4839C42.6347 19.9296 41.9624 19.9918 41.5087 19.6228L31.5155 11.4966L31.5155 11.4966C27.7364 8.42311 22.264 8.42311 18.485 11.4966L18.4849 11.4966L8.49174 19.6228C8.03802 19.9918 7.36572 19.9296 6.99012 19.4839C6.61452 19.0382 6.67785 18.3778 7.13157 18.0088L17.1247 9.88265C17.1247 9.88263 17.1247 9.88262 17.1248 9.8826C21.6929 6.16739 28.3075 6.16739 32.8757 9.8826Z" fill="#FF6304" stroke="#FF6304" stroke-miterlimit="10" stroke-linecap="round"/>
</svg>
